<?xml version="1.0" encoding="UTF-8" standalone="no"?>
<!-- Created with Inkscape (http://www.inkscape.org/) -->

<svg
   width="750"
   height="175"
   viewBox="0 0 198.43749 46.302082"
   version="1.1"
   id="svg5"
   inkscape:version="1.2.2 (b0a8486541, 2022-12-01)"
   sodipodi:docname="kobold6-inkscape.svg"
   xmlns:inkscape="http://www.inkscape.org/namespaces/inkscape"
   xmlns:sodipodi="http://sodipodi.sourceforge.net/DTD/sodipodi-0.dtd"
   xmlns="http://www.w3.org/2000/svg"
   xmlns:svg="http://www.w3.org/2000/svg">
  <sodipodi:namedview
     id="namedview7"
     pagecolor="#ffffff"
     bordercolor="#666666"
     borderopacity="1.0"
     inkscape:showpageshadow="2"
     inkscape:pageopacity="0.0"
     inkscape:pagecheckerboard="0"
     inkscape:deskcolor="#d1d1d1"
     inkscape:document-units="px"
     showgrid="false"
     inkscape:zoom="2.3786088"
     inkscape:cx="327.92278"
     inkscape:cy="152.61021"
     inkscape:window-width="2256"
     inkscape:window-height="1400"
     inkscape:window-x="0"
     inkscape:window-y="0"
     inkscape:window-maximized="1"
     inkscape:current-layer="layer2"
     showguides="false">
    <sodipodi:guide
       position="61.979869,-79.742002"
       orientation="0,-1"
       id="guide181"
       inkscape:locked="false" />
    <sodipodi:guide
       position="54.90095,-75.533982"
       orientation="1,0"
       id="guide183"
       inkscape:locked="false" />
    <sodipodi:guide
       position="120.10566,-72.269812"
       orientation="1,0"
       id="guide185"
       inkscape:locked="false" />
    <sodipodi:guide
       position="129.56037,-84.384532"
       orientation="0,-1"
       id="guide187"
       inkscape:locked="false" />
  </sodipodi:namedview>
  <defs
     id="defs2">
    <linearGradient
       id="linearGradient916"
       inkscape:swatch="solid">
      <stop
         style="stop-color:#ff0000;stop-opacity:1;"
         offset="0"
         id="stop914" />
    </linearGradient>
    <rect
       x="134.53242"
       y="279.99561"
       width="1013.1973"
       height="243.84001"
       id="rect113" />
  </defs>
  <g
     inkscape:label="Layer 1"
     inkscape:groupmode="layer"
     id="layer1">
    <g
       inkscape:groupmode="layer"
       id="layer2"
       inkscape:label="background">
      <rect
         style="fill:#ffffff;fill-opacity:1;stroke-width:1.00012"
         id="rect304"
         width="198.43748"
         height="46.302082"
         x="-0.11123448"
         y="0.11123449" />
    </g>
    <g
       aria-label="KOBOLD"
       transform="matrix(0.26458333,0,0,0.26458333,-39.821947,11.568387)"
       id="text111"
       style="font-size:192px;line-height:1.25;white-space:pre;shape-inside:url(#rect113)">
      <g
         id="g312"
         transform="matrix(1.0285397,0,0,1.0285397,-33.794456,-401.05302)">
        <path
           d="m 297.00724,381.14688 v 7.72307 l -36.75608,43.76404 q 9.01024,10.8695 18.30653,22.02504 9.4393,11.01252 18.44955,21.739 v 7.72307 h -23.1692 L 240.08538,443.78953 H 219.91959 V 484.1211 H 197.60851 V 381.14688 h 22.31108 v 40.33157 h 20.16579 q 3.28945,-3.71851 6.43588,-7.58005 3.14644,-3.86153 6.43589,-7.72306 l 20.88089,-25.02846 z"
           style="font-family:Orbitron;-inkscape-font-specification:Orbitron;stroke-width:0.744895"
           id="path291" />
        <path
           d="m 529.27131,421.62147 q 0,4.00455 -1.00114,6.57891 2.1453,2.71737 3.57549,6.29287 1.4302,3.43247 1.4302,7.15098 v 21.30995 q 0,4.43361 -1.71624,8.29514 -1.71623,3.86153 -4.57663,6.72193 -2.86039,2.86039 -6.72193,4.57663 -3.86153,1.57322 -8.29514,1.57322 H 430.30164 V 381.14688 h 77.80275 q 4.29059,0 8.15212,1.71624 3.86153,1.57321 6.72193,4.43361 3.00341,2.86039 4.57663,6.72193 1.71624,3.86153 1.71624,8.29514 z m -76.80161,40.18855 h 58.35206 V 442.93141 H 452.4697 Z m 0,-41.18969 h 54.34751 V 403.45796 H 452.4697 Z"
           style="font-family:Orbitron;-inkscape-font-specification:Orbitron;stroke-width:0.744895"
           id="path295" />
        <path
           d="m 675.42836,381.00386 h 22.16806 v 80.80616 h 80.80616 V 484.1211 H 675.42836 Z"
           style="font-family:Orbitron;-inkscape-font-specification:Orbitron;stroke-width:0.744895"
           id="path299" />
        <path
           d="m 868.64792,381.14688 q 4.43361,0 8.29514,1.71624 3.86154,1.57321 6.72193,4.43361 2.8604,2.86039 4.57663,6.72193 1.71624,3.86153 1.71624,8.29514 v 60.64038 q 0,4.43361 -1.71624,8.29514 -1.71623,3.86153 -4.57663,6.72193 -2.86039,2.86039 -6.72193,4.57663 -3.86153,1.57322 -8.29514,1.57322 H 786.98367 V 381.14688 Z m -59.49619,80.66314 h 58.35203 v -58.35206 h -58.35203 z"
           style="font-family:Orbitron;-inkscape-font-specification:Orbitron;stroke-width:0.744895"
           id="path301" />
        <g
           id="g488"
           transform="matrix(0.55388273,0,0,0.55388273,125.85463,-6.6875364)">
          <path
             id="path7"
             style="fill:#000000;stroke-width:0.999999"
             d="M 419.63913,675.36657 A 117.53568,117.53568 0 0 0 302.1024,792.89977 117.53568,117.53568 0 0 0 419.63913,910.4365 117.53568,117.53568 0 0 0 537.17233,792.89977 117.53568,117.53568 0 0 0 419.63913,675.36657 Z m -0.70878,12.631 3.23709,36.91271 3.19478,36.42609 h 0.0423 l -0.0317,0.14105 0.0317,0.34557 h -0.10578 l -3.13131,14.64801 -3.23709,15.13464 -3.23709,-15.13464 -3.13483,-14.64801 h -0.10226 l 0.0282,-0.34557 -0.0282,-0.14105 h 0.0423 l 3.19478,-36.42609 z m -1.72786,106.95447 -5.173,8.60051 -5.00726,8.32193 0.0776,0.13753 -0.19395,0.0599 -0.0494,0.0811 -0.0317,-0.0564 -20.70257,6.4107 -20.97762,6.49534 16.11845,-14.916 15.89983,-14.72207 -0.0317,-0.0564 h 0.0952 l 0.1481,-0.14105 0.0811,0.13753 9.71127,-0.17279 z" />
        </g>
        <g
           id="g493"
           transform="matrix(0.55388273,0,0,0.55388273,213.68687,-6.6875364)">
          <path
             id="path7-2"
             style="fill:#000000;stroke-width:0.999999"
             d="M 705.39137,675.36657 A 117.53568,117.53568 0 0 0 587.85464,792.89977 117.53568,117.53568 0 0 0 705.39137,910.4365 117.53568,117.53568 0 0 0 822.92457,792.89977 117.53568,117.53568 0 0 0 705.39137,675.36657 Z m 0.53951,12.631 3.23709,36.91271 3.19478,36.42609 h 0.0423 l -0.0317,0.14105 0.0317,0.34557 h -0.10578 l -3.13131,14.64801 -3.23709,15.13464 -3.24061,-15.13464 -3.13131,-14.64801 h -0.10226 l 0.0282,-0.34557 -0.0282,-0.14105 h 0.0423 l 3.19125,-36.42609 z m 1.56918,106.85574 10.03569,0.17984 9.7148,0.17278 0.0776,-0.13752 0.15163,0.14105 h 0.0917 l -0.0317,0.0564 15.89983,14.72206 16.11845,14.91601 -20.97761,-6.49534 -20.69905,-6.41071 -0.0317,0.0564 -0.0494,-0.0811 -0.19747,-0.0599 0.0776,-0.13752 -5.00726,-8.32194 z" />
        </g>
      </g>
    </g>
  </g>
</svg>
